<svg xmlns="http://www.w3.org/2000/svg" viewBox="0 0 64 64">
  <rect width="64" height="64" rx="16" fill="#191512"/>
  <path d="M24 18h16v8c0 2.3-1.2 4.4-3.1 5.6l-.9.6 7.2 14.4A4 4 0 0 1 39.6 52H24.4a4 4 0 0 1-3.6-5.8L28 32.2l-.9-.6A6.6 6.6 0 0 1 24 26v-8Z" fill="#FFFDF8"/>
  <path d="M27 15h10v6H27z" fill="#D7B56D"/>
  <path d="M27 44h10.5c1.8 0 2.8-1.9 2-3.4L35.8 33h-7.6l-3.7 7.6A2.4 2.4 0 0 0 27 44Z" fill="#D7B56D"/>
  <path d="M18 18c2.3-.6 3.7-2 4.2-4.2.6 2.2 2 3.6 4.2 4.2-2.2.6-3.6 2-4.2 4.2-.5-2.2-1.9-3.6-4.2-4.2Z" fill="#D7B56D"/>
  <path d="M40 14c1.5-.4 2.4-1.3 2.8-2.8.4 1.5 1.3 2.4 2.8 2.8-1.5.4-2.4 1.3-2.8 2.8-.4-1.5-1.3-2.4-2.8-2.8Z" fill="#FFFDF8"/>
</svg>
